<?xml version="1.0" standalone="no"?>
<!DOCTYPE svg PUBLIC "-//W3C//DTD SVG 20010904//EN"
 "http://www.w3.org/TR/2001/REC-SVG-20010904/DTD/svg10.dtd">
<svg version="1.0" xmlns="http://www.w3.org/2000/svg"
 width="192.000000pt" height="192.000000pt" viewBox="0 0 192.000000 192.000000"
 preserveAspectRatio="xMidYMid meet">
<metadata>
Created by potrace 1.14, written by Peter Selinger 2001-2017
</metadata>
<g transform="translate(0.000000,192.000000) scale(0.100000,-0.100000)"
fill="#000000" stroke="none">
<path d="M455 1801 c6 -11 3 -13 -13 -9 -12 4 -20 2 -17 -2 3 -5 1 -11 -5 -15
-5 -3 -10 -2 -10 3 0 5 -7 9 -15 9 -12 0 -12 -3 -2 -15 10 -13 9 -14 -10 -4
-17 10 -22 9 -27 -4 -5 -13 -9 -14 -20 -4 -12 9 -17 7 -25 -8 -6 -11 -7 -23
-3 -27 4 -5 1 -5 -6 -1 -7 4 -10 12 -6 18 3 5 -7 3 -24 -6 -16 -8 -33 -12 -37
-8 -5 4 -5 1 -1 -6 5 -9 13 -9 29 -1 21 10 21 10 3 -5 -18 -14 -38 -20 -58
-17 -4 0 -5 -5 -2 -13 3 -8 0 -17 -5 -21 -6 -3 -8 -11 -5 -17 4 -5 -4 -4 -17
2 -13 7 -21 9 -16 5 4 -5 -1 -17 -10 -28 -10 -10 -17 -21 -15 -23 1 -2 2 -7 1
-11 0 -5 -4 1 -8 11 -7 19 -8 19 -13 -2 -4 -12 -2 -20 3 -16 5 3 9 0 9 -5 0
-6 -5 -11 -11 -11 -6 0 -9 -7 -6 -15 4 -8 1 -17 -5 -21 -7 -5 -8 -2 -3 6 5 9
4 11 -3 6 -7 -4 -12 -16 -12 -27 0 -10 -6 -19 -12 -19 -9 0 -8 -4 2 -10 14 -9
7 -14 -15 -11 -5 1 -1 -6 9 -14 17 -13 17 -15 3 -15 -11 0 -14 -5 -10 -17 4
-9 2 -14 -3 -11 -5 4 -9 -8 -8 -25 0 -18 -4 -41 -9 -52 -9 -17 -8 -18 5 -7 13
11 18 11 24 0 4 -7 4 -10 0 -6 -4 3 -15 -1 -25 -10 -16 -16 -16 -18 6 -39 26
-25 23 -29 -10 -12 -21 10 -21 9 2 -10 13 -12 20 -21 16 -21 -4 0 -3 -6 4 -13
8 -10 7 -17 -1 -25 -9 -9 -7 -16 5 -30 13 -14 14 -21 5 -30 -9 -9 -9 -12 1
-12 10 0 10 -4 3 -13 -12 -14 11 -53 26 -43 5 3 8 -11 7 -30 0 -26 3 -33 13
-29 11 4 10 -1 -3 -21 -11 -17 -12 -23 -4 -18 27 16 34 11 33 -22 -2 -29 0
-32 15 -24 13 6 18 5 18 -5 0 -8 -3 -12 -7 -10 -12 8 -4 -35 10 -48 10 -10 11
-9 5 2 -6 10 -4 12 4 7 7 -4 9 -17 6 -29 -5 -16 -4 -18 3 -8 8 11 12 9 18 -10
4 -13 7 -28 5 -33 -1 -5 6 -3 15 5 12 9 15 9 10 2 -4 -8 -2 -13 5 -13 8 0 7
-5 -2 -17 -10 -11 -10 -14 -1 -9 7 4 12 2 12 -4 0 -6 5 -8 13 -4 7 5 7 2 -2
-10 -12 -15 -12 -17 0 -14 9 2 14 -5 13 -20 0 -16 3 -19 10 -12 14 14 29 13
20 -2 -5 -8 -2 -9 11 -4 14 5 15 3 7 -6 -11 -15 10 -42 24 -30 4 4 4 -1 1 -10
-5 -13 -1 -18 12 -18 18 0 36 -25 32 -43 0 -4 7 -11 16 -14 10 -4 29 -18 43
-31 l25 -24 -28 17 c-15 10 -30 15 -33 12 -3 -3 4 -8 15 -12 12 -3 19 -11 15
-16 -3 -5 -2 -9 3 -8 4 1 17 1 28 0 17 -1 18 -3 5 -12 -12 -9 -10 -10 8 -6 20
5 21 3 10 -11 -11 -14 -10 -15 6 -9 15 6 17 5 7 -6 -9 -12 -7 -14 12 -12 26 3
65 -34 61 -58 -1 -10 4 -14 17 -12 13 3 21 -3 25 -21 3 -13 10 -21 15 -18 5 3
9 0 9 -6 0 -6 4 -8 10 -5 6 3 10 -1 10 -10 0 -11 5 -15 16 -11 8 3 12 2 9 -4
-3 -6 -2 -10 2 -10 5 0 18 -7 29 -16 10 -8 12 -13 4 -9 -8 4 -6 -1 5 -9 11 -9
25 -14 32 -12 8 3 10 -1 6 -11 -4 -11 -2 -14 5 -9 7 4 12 2 12 -6 0 -9 3 -9
10 2 8 13 10 12 10 -2 0 -10 4 -18 9 -18 5 0 13 -9 16 -20 3 -11 13 -20 21
-20 9 0 12 -5 8 -12 -4 -7 -4 -10 1 -6 4 4 14 3 21 -3 8 -7 14 -6 20 2 5 8 3
9 -6 4 -9 -6 -11 -4 -6 4 6 10 12 9 24 -2 10 -8 24 -18 32 -22 13 -8 13 -7 1
9 -8 9 -10 16 -5 15 21 -4 34 2 32 14 -2 7 5 11 16 9 10 -2 15 1 11 7 -3 6 0
9 8 5 18 -7 41 21 31 38 -6 10 -3 9 9 -1 12 -9 17 -10 17 -2 0 7 5 9 13 5 9
-6 9 -5 -1 8 -10 13 -9 15 13 12 21 -2 24 0 15 11 -10 12 -8 13 10 10 16 -3
20 0 16 10 -3 8 -1 17 4 20 6 4 10 1 10 -4 0 -6 5 -11 11 -11 5 0 7 5 4 10 -3
6 0 10 7 11 16 0 64 59 49 59 -6 0 -11 -6 -11 -12 -1 -7 -6 -3 -13 10 -7 12
-16 20 -20 16 -4 -4 -1 -14 5 -23 11 -14 10 -14 -7 0 -11 9 -26 14 -32 12 -7
-3 -13 3 -14 14 0 16 -1 16 -9 -2 -5 -11 -9 -15 -9 -8 -1 13 -19 12 -40 -1 -9
-6 -12 -5 -8 1 9 14 -28 24 -41 11 -6 -6 -12 -5 -17 3 -6 8 -4 10 5 4 9 -5 11
-4 6 4 -6 9 -11 9 -24 -1 -13 -11 -15 -10 -9 4 3 10 2 18 -3 18 -10 0 -14 -14
-11 -35 1 -5 -10 2 -23 18 -29 31 -38 34 -29 10 5 -15 3 -14 -10 2 -8 11 -13
24 -10 29 4 5 1 6 -6 2 -6 -4 -9 -11 -6 -16 3 -5 1 -11 -5 -15 -5 -3 -10 0
-10 8 0 9 -9 13 -25 12 -14 -2 -23 1 -19 6 3 5 11 6 17 2 7 -4 6 0 -2 10 -15
18 -26 23 -16 7 3 -5 -1 -10 -10 -10 -9 0 -14 4 -11 8 2 4 -8 7 -22 6 -37 -2
-54 6 -48 22 3 8 -4 18 -17 24 -20 10 -20 10 -5 -3 16 -12 14 -14 -15 -14 -18
0 -26 2 -20 4 10 4 9 8 -1 19 -18 17 -29 18 -21 2 4 -7 -3 -2 -14 11 -14 15
-27 21 -38 16 -15 -5 -16 -4 -6 6 18 18 16 30 -4 22 -12 -5 -14 -3 -8 8 6 11
5 12 -6 2 -17 -17 -30 -17 -26 0 1 6 -4 11 -11 9 -8 -1 -11 2 -8 7 4 5 2 12
-4 16 -5 3 -10 0 -10 -7 0 -8 -5 -6 -11 5 -6 9 -16 14 -22 11 -7 -4 -2 4 11
17 22 22 24 23 36 7 7 -10 16 -14 20 -10 4 4 7 2 6 -3 -5 -22 1 -27 18 -14 9
7 14 10 10 5 -9 -10 16 -36 34 -36 10 0 9 3 -2 10 -8 5 -10 10 -4 10 6 0 18
-8 25 -17 8 -10 9 -14 2 -10 -6 4 -14 3 -17 -2 -4 -5 0 -8 6 -7 24 3 36 16 33
34 -2 9 -4 19 -4 22 -1 3 -6 -2 -11 -10 -5 -8 -10 -10 -10 -4 0 6 6 17 14 23
7 6 12 21 12 34 -1 12 2 28 7 35 7 9 5 11 -9 6 -17 -5 -17 -4 -4 8 8 7 15 27
14 45 0 18 3 30 8 27 4 -3 8 -1 8 5 0 5 -6 12 -12 15 -7 3 -2 3 12 -1 23 -5
24 -5 10 12 -9 11 -10 16 -2 11 7 -4 12 -1 12 9 0 9 5 13 10 10 6 -3 10 -1 10
4 0 6 -4 11 -10 11 -5 0 -10 4 -10 9 0 5 10 7 23 5 12 -2 16 -2 10 2 -18 8
-16 27 2 20 13 -5 14 -2 4 15 -10 19 -9 20 13 8 22 -12 22 -11 8 6 -14 17 -13
18 4 12 16 -6 17 -5 6 8 -8 10 -9 15 -1 15 6 0 11 7 11 15 0 8 4 15 9 15 5 0
11 10 13 23 2 12 9 21 15 20 9 -2 10 4 2 24 -8 23 -8 24 6 13 13 -11 14 -10 9
4 -4 11 -2 16 6 14 7 -2 14 9 15 25 3 19 0 25 -8 20 -6 -4 -2 6 11 22 13 16
20 36 17 46 -3 9 0 21 6 25 8 5 10 3 4 -7 -7 -12 -6 -12 6 0 11 10 11 15 2 18
-7 3 -13 9 -13 14 0 6 4 8 8 5 5 -3 9 1 9 9 0 8 -5 15 -11 15 -7 0 -6 3 1 8
14 9 18 43 9 84 -3 15 -2 29 3 32 4 3 7 -6 5 -20 -1 -14 0 -23 3 -20 4 3 7 23
8 43 2 21 0 32 -2 26 -11 -29 -19 -9 -17 39 2 36 0 48 -6 38 -5 -8 -10 -10
-10 -4 0 6 3 14 7 18 11 10 12 37 2 30 -5 -3 -6 -10 -3 -16 5 -7 2 -8 -5 -4
-7 5 -10 10 -7 13 3 3 -4 14 -14 26 -16 17 -17 23 -7 36 9 12 9 13 -1 7 -7 -4
-15 -1 -18 8 -3 9 -14 16 -23 16 -14 0 -14 2 -1 11 12 9 10 10 -8 6 -19 -5
-21 -3 -11 9 9 11 7 14 -10 14 -11 0 -21 6 -21 14 0 7 -7 20 -17 27 -15 13
-15 12 -4 -11 l12 -25 -20 24 c-12 12 -18 28 -14 35 3 6 2 7 -3 3 -5 -5 -9
-13 -9 -18 0 -12 -20 -12 -21 1 -1 6 -3 13 -4 18 -1 4 -2 11 -1 15 1 5 -3 6
-9 2 -6 -3 -8 -11 -5 -16 4 -5 2 -9 -2 -9 -5 0 -14 9 -21 20 -7 12 -17 18 -21
15 -5 -3 -11 -2 -14 2 -2 5 -2 3 -1 -4 2 -6 -3 -14 -11 -17 -9 -3 -12 0 -9 8
6 17 -23 29 -32 14 -5 -7 -2 -8 6 -3 9 5 11 4 6 -4 -11 -17 -26 -4 -20 17 5
14 3 14 -10 -2 -12 -15 -16 -16 -16 -5 0 10 -11 15 -34 15 -19 0 -32 -4 -30
-8 8 -13 -11 -9 -25 5 -11 10 -12 9 -6 -2z m-285 -181 c0 -5 -5 -10 -11 -10
-5 0 -7 5 -4 10 3 6 8 10 11 10 2 0 4 -4 4 -10z m671 -155 c-4 -5 -11 -18 -14
-27 -4 -13 -2 -16 11 -12 13 5 13 2 -4 -13 -11 -10 -21 -33 -23 -53 -2 -19 -8
-38 -15 -42 -8 -6 -7 -8 2 -8 7 0 10 -5 7 -10 -5 -8 -11 -7 -21 1 -10 8 -14 8
-14 0 0 -6 5 -11 10 -11 6 0 10 -7 10 -16 0 -9 5 -12 13 -8 8 5 8 2 -2 -9 -10
-13 -11 -20 -2 -30 6 -8 8 -17 4 -20 -3 -4 -1 -12 5 -19 12 -15 4 -70 -9 -62
-5 3 -9 -3 -9 -13 0 -15 -2 -16 -10 -3 -7 11 -10 11 -10 2 0 -8 -5 -10 -12 -6
-10 5 -10 4 -1 -6 9 -10 10 -17 2 -27 -9 -10 -8 -13 2 -13 11 0 11 -2 -1 -9
-8 -6 -18 -7 -22 -5 -5 3 -7 -6 -4 -20 3 -15 1 -24 -5 -21 -5 4 -7 10 -4 15 3
5 1 11 -4 14 -5 3 -7 -8 -6 -24 2 -27 1 -28 -19 -18 -19 10 -20 10 -7 -5 9
-11 10 -17 2 -17 -6 0 -11 -5 -11 -11 0 -5 5 -7 12 -3 7 5 8 3 4 -5 -5 -7 -14
-10 -22 -7 -8 3 -11 0 -7 -9 3 -8 10 -12 16 -8 6 3 7 1 3 -6 -6 -9 -11 -9 -24
1 -12 10 -14 10 -8 1 5 -9 1 -13 -11 -13 -17 -1 -16 -2 2 -17 18 -14 18 -15 2
-9 -10 3 -23 6 -28 6 -6 0 -7 5 -4 10 3 6 1 10 -4 10 -6 0 -11 -6 -11 -12 0
-9 -3 -8 -9 2 -6 8 -7 19 -3 25 3 5 -3 3 -13 -5 -12 -10 -16 -11 -11 -2 6 10
1 12 -21 10 -22 -2 -27 1 -25 14 1 9 -3 20 -9 24 -8 4 -9 3 -5 -4 4 -7 2 -12
-3 -12 -6 0 -11 5 -11 10 0 6 -5 10 -11 10 -5 0 -7 -5 -4 -11 4 -6 -2 -5 -14
3 -16 10 -23 10 -33 0 -17 -17 -28 -15 -22 6 5 14 4 14 -6 -2 -10 -14 -9 -20
1 -28 10 -7 8 -8 -9 -5 -16 4 -25 -1 -33 -16 -10 -21 -10 -21 5 -3 9 11 16 15
16 8 0 -6 -11 -19 -25 -28 -14 -9 -24 -22 -23 -28 2 -6 -2 -12 -7 -13 -6 -1
-10 6 -9 15 0 11 -8 19 -19 20 -11 0 -25 6 -31 13 -8 9 -7 10 7 6 25 -9 21 2
-6 13 -22 9 -22 9 3 10 22 0 23 2 8 11 -11 6 -15 16 -11 26 4 10 2 14 -5 9 -6
-3 -13 -2 -16 3 -4 5 -1 13 5 17 8 5 9 3 4 -7 -5 -8 -4 -10 0 -6 5 4 10 21 11
38 2 27 1 29 -14 17 -15 -11 -15 -11 -5 3 7 9 9 20 5 24 -4 5 -1 5 7 0 11 -6
13 -3 8 14 -4 18 -3 20 9 10 12 -10 13 -9 9 4 -4 8 -1 18 6 23 8 4 10 3 5 -4
-4 -7 -5 -12 -2 -12 3 0 10 9 16 20 9 16 8 19 -7 14 -16 -5 -16 -4 1 10 10 8
24 12 30 9 6 -4 4 2 -4 12 -9 11 -10 16 -2 11 7 -4 12 -2 12 4 0 6 4 9 9 5 5
-3 12 4 16 15 4 11 11 17 17 14 7 -5 9 -2 5 8 -4 12 -1 14 14 11 11 -3 19 0
19 6 0 7 -5 9 -12 5 -9 -5 -8 -2 1 9 8 10 16 15 19 12 3 -3 19 7 35 22 17 16
27 22 22 14 -6 -10 -2 -11 16 -6 13 4 27 13 31 19 4 6 12 12 18 12 5 1 15 2
21 3 5 0 8 5 5 9 -2 4 5 9 17 9 17 2 19 0 7 -7 -8 -5 -10 -10 -4 -10 5 0 19 6
29 14 11 8 25 12 32 9 7 -3 13 0 13 7 0 6 -5 8 -12 4 -9 -5 -8 -2 1 9 10 13
17 15 27 6 11 -9 15 -7 20 5 3 9 10 14 14 11 4 -3 11 2 14 11 4 10 2 13 -7 8
-9 -5 -9 -4 0 6 10 10 15 11 27 1 12 -10 14 -9 9 8 -5 20 34 69 51 63 5 -2 6
5 2 15 -4 11 1 9 13 -7 11 -13 16 -29 12 -35z m-771 -165 c0 -5 -2 -10 -4 -10
-3 0 -8 5 -11 10 -3 6 -1 10 4 10 6 0 11 -4 11 -10z m801 -187 c13 -16 12 -17
-3 -4 -10 7 -18 15 -18 17 0 8 8 3 21 -13z m-771 -13 c0 -5 -2 -10 -4 -10 -3
0 -8 5 -11 10 -3 6 -1 10 4 10 6 0 11 -4 11 -10z m357 -396 c-3 -3 -12 -4 -19
-1 -8 3 -5 6 6 6 11 1 17 -2 13 -5z m25 -23 c10 5 18 7 18 5 0 -3 -9 -10 -19
-15 -14 -8 -22 -7 -32 7 -11 14 -11 15 1 5 9 -8 19 -9 32 -2z m31 -16 c-3 -9
-8 -14 -10 -11 -3 3 -2 9 2 15 9 16 15 13 8 -4z m164 2 c0 -8 -6 -14 -14 -14
-17 0 -17 14 0 20 6 3 12 6 13 6 0 1 1 -5 1 -12z m543 -322 c0 -2 -10 -9 -22
-15 -22 -11 -22 -10 -4 4 21 17 26 19 26 11z m-335 -163 c-3 -3 -11 0 -18 7
-9 10 -8 11 6 5 10 -3 15 -9 12 -12z"/>
<path d="M804 1482 c4 -3 14 -7 22 -8 9 -1 13 0 10 4 -4 3 -14 7 -22 8 -9 1
-13 0 -10 -4z"/>
<path d="M779 1453 c-12 -16 -12 -17 2 -6 9 7 20 9 24 5 5 -4 5 -1 1 6 -9 16
-11 15 -27 -5z"/>
<path d="M459 1273 c-13 -16 -12 -17 4 -4 9 7 17 15 17 17 0 8 -8 3 -21 -13z"/>
<path d="M770 1260 c0 -5 5 -10 11 -10 5 0 7 5 4 10 -3 6 -8 10 -11 10 -2 0
-4 -4 -4 -10z"/>
<path d="M734 1074 c1 -8 4 -15 7 -16 2 -2 3 -1 2 1 -2 2 2 9 7 16 7 8 5 12
-4 12 -8 0 -13 -6 -12 -13z"/>
<path d="M525 940 c-3 -5 -2 -10 4 -10 5 0 13 5 16 10 3 6 2 10 -4 10 -5 0
-13 -4 -16 -10z"/>
<path d="M1318 1803 c-10 -2 -18 -9 -18 -14 0 -6 -10 -5 -22 2 l-23 12 20 -24
c13 -15 14 -19 3 -11 -10 8 -18 9 -22 3 -4 -6 -13 -8 -21 -4 -9 3 -22 -1 -31
-8 -13 -10 -17 -10 -26 2 -7 11 -9 9 -5 -8 3 -13 0 -26 -5 -30 -6 -3 -8 -1 -4
5 3 6 2 13 -4 17 -5 3 -10 -1 -10 -9 0 -10 -6 -13 -17 -9 -11 4 -14 3 -9 -5 5
-8 0 -12 -13 -12 -14 0 -19 -5 -15 -15 5 -11 2 -13 -10 -9 -9 3 -16 1 -16 -5
0 -6 6 -11 13 -11 8 0 7 -4 -3 -10 -12 -8 -12 -10 -1 -10 8 0 2 -9 -13 -21
-23 -18 -29 -19 -43 -7 -10 7 -14 8 -10 1 4 -6 1 -13 -5 -16 -10 -3 -10 -7 -1
-17 9 -10 15 -9 29 4 9 10 23 15 31 12 8 -3 11 -1 8 4 -10 16 34 52 55 45 10
-3 22 -1 25 6 6 8 10 7 17 -2 8 -11 9 -10 4 4 -3 9 -1 17 5 17 6 0 7 4 4 10
-8 13 28 0 37 -14 5 -7 8 -5 8 4 0 11 11 15 39 15 22 0 37 -3 34 -7 -2 -5 1
-8 6 -8 6 0 11 4 11 10 0 5 7 7 16 3 13 -5 13 -7 2 -14 -7 -5 -8 -9 -2 -9 5 0
15 5 22 12 8 8 12 8 12 1 0 -6 7 -14 16 -17 15 -6 15 -4 3 11 -13 17 -13 17 5
3 11 -8 21 -13 23 -10 2 3 16 -6 30 -20 20 -18 25 -20 20 -7 -5 14 -3 16 11 8
26 -14 72 -59 72 -71 0 -5 5 -10 11 -10 5 0 7 5 3 12 -4 7 -3 8 5 4 6 -4 9
-12 6 -17 -4 -5 -1 -9 4 -9 6 0 11 -8 11 -19 0 -10 8 -25 18 -32 14 -11 15
-11 5 1 -7 8 -13 18 -13 24 0 5 6 1 14 -10 11 -15 12 -22 3 -33 -9 -12 -9 -13
1 -7 7 4 12 2 12 -4 0 -6 5 -8 13 -4 7 5 7 2 -2 -10 -11 -12 -11 -16 -2 -14 7
2 17 -7 22 -20 6 -16 5 -21 -2 -16 -8 4 -7 0 0 -15 7 -11 16 -21 21 -21 6 0
10 -5 10 -11 0 -5 -4 -8 -8 -5 -5 3 -9 -1 -9 -9 0 -8 4 -12 8 -9 4 2 10 0 14
-6 3 -5 1 -10 -4 -10 -6 0 -11 -5 -11 -11 0 -5 3 -8 8 -5 4 2 6 -14 4 -36 -3
-24 0 -38 5 -35 5 3 10 0 10 -7 0 -8 -6 -12 -13 -9 -13 5 -14 -21 -1 -33 10
-11 8 -26 -2 -19 -6 3 -7 -6 -4 -22 3 -16 5 -32 4 -38 -4 -43 -10 -60 -20 -57
-10 2 -13 -11 -14 -65 0 -12 -5 -19 -12 -17 -6 3 -18 -3 -26 -12 -8 -10 -9
-15 -3 -11 7 4 17 0 23 -7 10 -12 8 -14 -11 -9 -18 4 -20 3 -8 -6 14 -10 7
-15 -13 -12 -4 1 -3 -8 4 -20 10 -19 9 -21 -6 -15 -14 5 -16 4 -6 -7 8 -11 5
-20 -14 -41 -22 -24 -28 -26 -43 -14 -16 12 -16 11 -2 -6 14 -18 13 -19 -5
-12 -15 5 -17 4 -9 -4 9 -9 18 -9 35 0 22 10 23 10 5 -4 -10 -8 -16 -19 -12
-24 3 -5 -1 -9 -9 -9 -8 0 -11 5 -8 10 4 6 1 7 -6 3 -9 -6 -8 -13 6 -29 10
-11 13 -17 6 -13 -7 4 -18 -2 -25 -14 -7 -11 -17 -20 -22 -20 -4 0 -3 6 3 14
8 10 9 16 1 21 -6 3 -8 10 -5 15 3 5 -3 14 -12 20 -16 10 -15 10 4 5 18 -5 21
-2 19 20 -2 14 1 25 6 25 5 0 6 5 3 10 -3 6 1 10 9 10 20 0 29 17 15 26 -8 5
-9 3 -4 -6 5 -9 4 -11 -3 -6 -15 9 -15 11 5 27 14 12 16 12 8 0 -6 -10 -4 -12
5 -6 10 6 9 11 -5 22 -11 7 -13 13 -6 13 7 0 9 5 5 12 -4 6 -3 8 3 5 6 -4 19
1 29 9 17 14 17 15 2 10 -21 -6 -22 -2 -8 24 7 13 7 21 -2 26 -7 5 -8 3 -3 -6
5 -9 4 -11 -3 -6 -7 4 -12 14 -12 23 0 10 -6 13 -16 9 -14 -5 -15 -4 -5 8 9
11 9 16 0 22 -8 4 -9 3 -5 -4 13 -21 -13 -13 -28 9 -8 12 -19 18 -25 15 -5 -4
-13 -1 -17 5 -5 8 -3 9 7 4 8 -5 10 -4 6 0 -12 14 -38 15 -30 2 3 -7 -3 -3
-15 7 -12 11 -22 16 -22 11 0 -4 -8 -1 -17 6 -16 12 -17 12 -5 -2 10 -14 9
-16 -12 -14 -14 2 -31 7 -38 11 -9 5 -8 1 2 -11 14 -17 14 -18 -7 -7 -18 10
-24 9 -32 -5 -8 -14 -11 -15 -11 -3 -1 10 -4 8 -9 -5 -5 -11 -13 -21 -20 -21
-24 -3 -26 -5 -11 -14 13 -8 13 -10 -2 -10 -21 0 -32 -16 -17 -26 8 -5 9 -3 4
6 -5 9 -4 11 4 6 18 -12 3 -25 -22 -19 -22 6 -21 6 3 -16 14 -12 20 -20 15
-17 -6 2 -17 -4 -24 -16 -9 -15 -9 -18 0 -13 7 5 10 3 7 -6 -3 -8 -10 -13 -15
-12 -5 1 -10 -4 -10 -12 0 -8 4 -12 8 -10 17 11 15 -23 -3 -46 -11 -13 -17
-19 -14 -13 3 6 -1 11 -8 11 -8 0 -12 -7 -8 -15 3 -9 1 -13 -5 -9 -13 8 -12
-11 1 -32 6 -9 5 -12 -2 -7 -7 4 -10 -4 -10 -23 1 -17 5 -28 11 -24 5 3 4 -4
-2 -15 -10 -18 -8 -20 13 -18 21 3 23 0 16 -19 -5 -13 -6 -27 -2 -31 4 -4 -4
-1 -18 7 -26 17 -55 15 -44 -3 4 -6 -1 -6 -13 1 -11 6 -23 7 -27 4 -3 -3 -6 0
-6 8 -1 10 -4 8 -11 -4 -9 -16 -13 -17 -27 -4 -10 8 -24 18 -32 22 -13 8 -13
6 -2 -8 12 -14 11 -16 -7 -14 -11 0 -17 5 -15 9 3 4 1 8 -5 8 -5 0 -12 -6 -14
-12 -4 -10 -6 -10 -6 0 -1 6 -6 12 -12 12 -5 0 -7 -4 -4 -10 3 -5 -1 -10 -10
-10 -10 0 -13 5 -9 13 6 8 3 8 -9 -1 -9 -8 -21 -11 -27 -7 -5 3 -10 1 -10 -5
0 -6 -5 -8 -10 -5 -6 3 -13 0 -16 -9 -3 -8 -13 -17 -21 -20 -12 -5 -13 -3 -7
7 5 7 2 5 -8 -5 -21 -23 -29 -23 -22 0 5 16 5 16 -6 -1 -6 -9 -15 -15 -19 -13
-4 3 -8 -1 -8 -9 0 -8 4 -12 8 -9 4 2 10 0 13 -5 3 -5 -8 -8 -24 -7 -20 1 -27
-1 -20 -8 6 -6 3 -14 -8 -24 -10 -8 -5 -7 11 3 16 9 31 14 35 11 3 -3 0 -6 -6
-6 -7 0 -12 -8 -11 -17 0 -10 3 -13 5 -6 4 9 14 8 40 -4 19 -9 34 -20 34 -25
0 -4 5 -8 11 -8 5 0 7 5 4 10 -3 6 -1 10 4 10 6 0 11 -5 11 -10 0 -6 11 -8 25
-6 17 3 32 -2 46 -17 15 -17 22 -19 28 -9 7 11 9 11 14 -1 6 -16 23 -17 43 -4
7 4 15 0 18 -9 3 -9 11 -12 18 -8 7 5 28 7 46 5 19 -1 32 1 29 6 -4 6 0 10 7
10 7 0 13 -6 13 -13 0 -7 -4 -11 -8 -8 -4 2 -10 0 -13 -5 -8 -12 13 -8 41 7
16 9 24 9 29 0 5 -7 3 -8 -7 -3 -12 8 -12 6 0 -8 14 -18 22 -22 20 -9 -3 20 3
28 21 28 25 0 26 -13 3 -19 -17 -4 -17 -5 0 -6 10 0 20 6 23 14 4 8 13 15 21
15 8 0 11 5 8 10 -4 6 -1 9 7 8 7 -2 12 3 10 10 -1 8 2 11 8 7 6 -3 14 4 19
17 6 13 10 17 10 11 1 -7 5 -13 11 -13 5 0 7 7 4 15 -4 8 -1 21 5 29 6 7 7 17
3 21 -4 5 -2 5 5 2 6 -4 10 -19 8 -34 -1 -15 4 -37 12 -48 13 -17 14 -17 9 -2
-3 10 0 20 7 23 15 5 16 31 3 54 -7 12 -6 12 4 3 7 -6 18 -9 25 -7 7 3 16 1
20 -5 3 -6 0 -9 -8 -5 -19 7 -32 -12 -16 -22 8 -5 9 -3 4 6 -6 10 -4 12 7 7
19 -7 38 11 31 29 -3 9 2 14 13 14 17 0 16 3 -6 21 -14 11 -19 18 -13 14 7 -3
21 -8 32 -10 14 -3 18 1 14 16 -3 11 0 19 6 19 7 0 9 -5 5 -12 -5 -9 -2 -8 10
1 13 11 14 16 4 22 -9 6 -7 9 8 9 27 0 36 10 24 25 -7 9 -5 17 7 26 15 12 16
12 9 -1 -4 -9 -2 -8 7 2 8 10 17 15 20 11 4 -3 10 8 13 26 4 18 13 35 20 38 8
3 11 10 7 16 -4 6 0 8 10 4 11 -4 14 -2 10 8 -3 8 -10 12 -16 8 -6 -3 -7 -1
-3 6 6 9 11 9 22 0 11 -9 14 -7 14 10 0 33 19 63 36 57 19 -7 18 -1 -3 20 -17
17 -17 18 0 11 14 -5 16 -2 13 17 -3 15 1 23 10 23 10 0 11 -4 3 -13 -7 -8 -6
-14 2 -20 7 -4 9 -3 5 4 -3 6 -2 14 4 17 8 5 7 11 -1 21 -9 11 -6 16 12 23 13
5 19 10 13 10 -6 1 -11 8 -11 16 0 9 6 14 12 11 8 -3 12 6 10 27 -3 29 -2 30
11 12 15 -21 19 -9 4 15 -6 9 -5 17 3 22 8 5 5 8 -8 8 -16 0 -17 2 -6 9 8 5
21 7 30 4 9 -4 5 3 -8 15 -26 24 -22 28 12 11 21 -11 21 -11 6 7 -17 21 -14
58 4 47 7 -4 6 1 -2 10 -11 14 -11 17 0 17 9 0 10 3 4 8 -12 8 -16 44 -4 37 4
-3 7 4 6 15 -1 11 -6 20 -12 20 -5 0 -3 5 5 10 8 5 10 10 4 10 -6 0 -11 7 -11
15 0 10 6 14 16 10 13 -4 12 -2 -1 9 -21 15 -24 31 -5 20 9 -5 9 -4 0 6 -6 7
-9 19 -6 26 3 8 0 14 -7 14 -6 0 -8 -6 -4 -12 4 -7 3 -9 -1 -5 -12 10 -16 39
-5 32 11 -7 7 22 -5 32 -4 4 -5 1 -1 -7 4 -8 0 -6 -8 4 -13 16 -13 22 -3 35
10 12 9 13 -2 6 -11 -6 -13 -4 -8 8 3 9 2 19 -4 22 -5 4 -6 11 -3 17 4 7 2 8
-5 4 -8 -5 -9 -12 -2 -20 7 -8 6 -17 -1 -26 -8 -12 -9 -12 -4 2 3 10 1 20 -3
23 -5 3 -7 15 -4 28 4 18 3 19 -6 7 -9 -12 -11 -10 -11 10 0 20 -2 22 -11 10
-8 -11 -9 -8 -5 15 5 22 4 26 -4 15 -9 -14 -15 -7 -11 14 1 5 -4 4 -12 -2 -16
-13 -28 -6 -21 12 3 7 -2 19 -11 26 -12 10 -18 10 -32 -1 -17 -13 -17 -12 -3
4 12 17 12 20 -5 30 -11 6 -28 13 -38 14 -10 2 -25 10 -33 18 -20 20 -30 19
-14 0 11 -13 10 -14 -4 -9 -9 3 -16 10 -16 16 0 5 -5 6 -10 3 -14 -9 -52 4
-45 16 3 5 -2 6 -11 2 -11 -4 -15 -3 -11 4 8 13 -19 11 -30 -2 -4 -4 -2 -5 6
0 9 5 12 4 7 -3 -10 -17 -26 -15 -26 4 0 14 -2 15 -17 3 -9 -8 -14 -9 -10 -2
4 7 1 10 -8 9 -19 -3 -32 -16 -15 -16 7 0 11 -2 8 -5 -8 -9 -38 6 -32 16 3 5
4 8 2 8 -2 -1 -11 -3 -20 -6z m312 -84 c0 -6 -4 -7 -10 -4 -5 3 -10 11 -10 16
0 6 5 7 10 4 6 -3 10 -11 10 -16z m-502 -44 c-3 -3 -9 2 -12 12 -6 14 -5 15 5
6 7 -7 10 -15 7 -18z m42 21 c0 -2 -8 -10 -17 -17 -16 -13 -17 -12 -4 4 13 16
21 21 21 13z m315 -945 c-3 -5 -1 -13 5 -16 8 -5 8 -11 0 -20 -8 -9 -8 -15 0
-20 5 -3 10 -11 10 -16 0 -6 -5 -7 -12 -3 -7 5 -9 2 -5 -9 4 -10 2 -14 -7 -11
-7 3 -12 15 -11 27 1 12 -2 24 -6 27 -5 4 -2 16 7 28 14 21 31 32 19 13z m-32
-77 c-1 -10 4 -22 10 -26 9 -6 8 -8 -1 -8 -9 0 -12 -9 -9 -27 2 -16 2 -22 0
-15 -3 6 -9 12 -14 12 -6 0 -7 6 -3 13 6 9 4 9 -8 -1 -13 -10 -17 -10 -22 3
-4 11 -2 14 6 9 8 -5 9 -2 5 10 -5 13 -1 19 13 23 22 6 26 18 10 26 -6 3 -5 4
2 3 7 -2 12 -12 11 -22z m-30 -72 c4 8 6 6 6 -5 1 -12 -5 -17 -16 -15 -14 2
-17 -3 -15 -21 2 -13 -1 -21 -6 -17 -5 3 -8 20 -7 38 4 45 4 45 19 25 11 -14
15 -15 19 -5z"/>
<path d="M1051 1673 c3 -20 -2 -34 -11 -28 -5 3 -10 2 -10 -4 0 -16 18 -22 27
-9 11 19 12 37 2 44 -5 3 -9 2 -8 -3z"/>
<path d="M1410 1660 c0 -5 5 -10 11 -10 5 0 7 5 4 10 -3 6 -8 10 -11 10 -2 0
-4 -4 -4 -10z"/>
<path d="M1491 1623 c7 -12 15 -20 18 -17 3 2 -3 12 -13 22 -17 16 -18 16 -5
-5z"/>
<path d="M892 1594 c10 -10 20 -16 22 -13 3 3 -5 11 -17 18 -21 13 -21 12 -5
-5z"/>
<path d="M993 1565 c0 -7 6 -11 14 -8 7 3 13 6 13 8 0 2 -6 5 -13 8 -8 3 -14
-1 -14 -8z"/>
<path d="M935 1481 c-3 -5 -2 -12 3 -15 5 -3 9 1 9 9 0 17 -3 19 -12 6z"/>
<path d="M913 1165 c0 -8 4 -12 9 -9 5 3 6 10 3 15 -9 13 -12 11 -12 -6z"/>
<path d="M926 1144 c-12 -8 -15 -14 -7 -14 11 0 11 -3 1 -15 -14 -17 -14 -17
14 -32 16 -9 17 -11 2 -16 -12 -5 -15 -3 -10 6 4 6 3 9 -1 4 -5 -4 -9 -16 -10
-27 -1 -16 1 -18 13 -7 13 10 14 9 4 -10 -9 -16 -9 -23 1 -26 9 -4 9 -6 0 -6
-7 -1 -10 -8 -6 -18 4 -11 3 -14 -5 -9 -8 5 -10 2 -6 -9 4 -9 11 -12 18 -8 7
5 3 0 -7 -9 -11 -10 -14 -18 -8 -18 7 0 9 -5 5 -12 -4 -6 -3 -8 4 -5 6 5 8 0
5 -12 -6 -22 12 -37 23 -20 4 8 3 9 -4 5 -18 -11 -14 0 5 15 11 10 14 10 9 2
-4 -8 -2 -13 4 -13 6 0 8 -6 5 -12 -4 -7 0 -5 8 4 8 10 18 14 23 10 4 -4 3 0
-4 10 -10 12 -10 18 -1 24 7 4 9 3 5 -4 -4 -6 1 -10 13 -9 11 0 17 5 14 11 -4
5 1 7 11 3 14 -5 17 -3 12 8 -3 10 1 15 13 15 10 0 23 10 30 23 6 12 9 14 7 5
-3 -10 -1 -18 5 -18 6 0 7 -5 3 -12 -4 -6 -3 -8 4 -5 5 4 8 15 5 26 -3 12 2
20 16 24 12 3 21 10 21 17 0 6 -6 8 -12 5 -7 -4 -5 0 5 8 10 9 14 18 8 21 -5
3 -12 0 -14 -6 -4 -9 -16 -1 -36 21 -27 29 -45 33 -23 5 4 -5 0 -1 -10 8 -9
10 -24 18 -35 19 -16 0 -16 1 2 9 17 7 16 9 -10 10 -16 2 -33 2 -37 1 -5 0 -8
4 -8 10 0 5 -4 7 -10 4 -6 -4 -7 1 -3 12 3 10 3 15 -2 11 -4 -4 -13 -4 -19 1
-7 6 -18 4 -30 -5z m19 -4 c-3 -5 0 -10 7 -11 10 0 10 -2 0 -6 -6 -2 -10 -8
-8 -12 3 -4 -1 -8 -9 -8 -8 0 -11 5 -7 11 4 6 7 14 8 19 3 15 4 17 10 17 3 0
2 -4 -1 -10z"/>
<path d="M1660 1086 c0 -8 4 -17 9 -20 5 -4 7 3 4 14 -6 23 -13 26 -13 6z"/>
<path d="M95 1040 c3 -5 8 -10 11 -10 2 0 4 5 4 10 0 6 -5 10 -11 10 -5 0 -7
-4 -4 -10z"/>
<path d="M1190 960 c-9 -6 -10 -10 -3 -10 6 0 15 5 18 10 8 12 4 12 -15 0z"/>
<path d="M1175 860 c-3 -5 -2 -10 4 -10 5 0 13 5 16 10 3 6 2 10 -4 10 -5 0
-13 -4 -16 -10z"/>
<path d="M1576 854 c-18 -17 -20 -24 -8 -24 4 0 13 9 20 20 15 24 9 26 -12 4z"/>
<path d="M1510 739 c0 -5 5 -7 10 -4 6 3 10 8 10 11 0 2 -4 4 -10 4 -5 0 -10
-5 -10 -11z"/>
<path d="M1035 660 c3 -5 8 -10 11 -10 2 0 4 5 4 10 0 6 -5 10 -11 10 -5 0 -7
-4 -4 -10z"/>
<path d="M525 641 c-3 -5 -1 -12 5 -16 5 -3 10 -3 10 1 0 4 11 -3 24 -15 18
-17 26 -19 31 -10 5 7 4 10 -3 5 -6 -3 -19 5 -30 19 -22 27 -28 30 -37 16z"/>
<path d="M386 605 c4 -8 11 -15 16 -15 6 0 5 6 -2 15 -7 8 -14 15 -16 15 -2 0
-1 -7 2 -15z"/>
<path d="M790 499 c0 -5 5 -7 10 -4 6 3 10 8 10 11 0 2 -4 4 -10 4 -5 0 -10
-5 -10 -11z"/>
<path d="M771 484 c0 -11 3 -14 6 -6 3 7 2 16 -1 19 -3 4 -6 -2 -5 -13z"/>
<path d="M1318 482 c-23 -26 -33 -46 -20 -38 6 4 20 2 30 -3 14 -7 19 -6 19 3
0 7 -5 13 -11 12 -6 0 -11 4 -11 9 0 6 4 9 8 7 5 -1 6 2 2 8 -3 5 -1 10 4 10
6 0 11 -4 11 -9 0 -5 6 -11 14 -14 9 -4 13 0 12 10 -4 23 -40 26 -58 5z"/>
<path d="M875 481 c-3 -5 -2 -12 3 -15 5 -3 9 1 9 9 0 17 -3 19 -12 6z"/>
<path d="M557 443 c-3 -5 4 -15 16 -23 21 -12 21 -12 7 6 -8 10 -15 20 -16 22
-1 2 -4 -1 -7 -5z"/>
<path d="M966 417 c3 -10 9 -15 12 -12 3 3 0 11 -7 18 -10 9 -11 8 -5 -6z"/>
<path d="M1295 420 c-3 -6 1 -7 9 -4 18 7 21 14 7 14 -6 0 -13 -4 -16 -10z"/>
<path d="M930 141 c0 -6 4 -13 10 -16 6 -3 7 1 4 9 -7 18 -14 21 -14 7z"/>
</g>
</svg>
